<svg xmlns="http://www.w3.org/2000/svg" version="1.1" xmlns:xlink="http://www.w3.org/1999/xlink" xmlns:svgjs="http://svgjs.dev/svgjs" width="2000" height="2000" viewBox="0 0 2000 2000"><g transform="matrix(1,0,0,1,0,0)"><svg viewBox="0 0 280 280" data-background-color="#ffffff" preserveAspectRatio="xMidYMid meet" height="2000" width="2000" xmlns="http://www.w3.org/2000/svg" xmlns:xlink="http://www.w3.org/1999/xlink"><g id="tight-bounds" transform="matrix(1,0,0,1,0,0)"><svg viewBox="0 0 280 280" height="280" width="280"><g><svg viewBox="0 0 280 280" height="280" width="280"><g transform="matrix(1,0,0,1,60.80404050710668,112.15617355624286)"><svg viewBox="0 0 158.39191898578665 55.68765288751428" height="55.68765288751428" width="158.39191898578665"><g><svg viewBox="0 0 158.39191898578665 55.68765288751428" height="55.68765288751428" width="158.39191898578665"><g><svg viewBox="0 0 158.39191898578665 55.68765288751428" height="55.68765288751428" width="158.39191898578665"><g transform="matrix(1,0,0,1,0,33.65864691759023)"><svg viewBox="0 0 158.39191898578665 22.02900596992405" height="22.02900596992405" width="158.39191898578665"><g id="textblocktransform"><svg viewBox="0 0 158.39191898578665 22.02900596992405" height="22.02900596992405" width="158.39191898578665" id="textblock"><g><svg viewBox="0 0 158.39191898578665 22.02900596992405" height="22.02900596992405" width="158.39191898578665"><g transform="matrix(1,0,0,1,0,0)"><svg width="158.39191898578665" viewBox="3.5 -29.45 211.74 29.45" height="22.02900596992405" data-palette-color="#e09f05"><path d="M26.55 0L12.65 0Q9.1 0 7.1-1 5.1-2 4.3-4 3.5-6 3.5-8.95L3.5-8.95 3.5-20.1Q3.5-24.9 5.65-27.18 7.8-29.45 12.65-29.45L12.65-29.45 27.7-29.45Q31.15-29.45 32.98-29.08 34.8-28.7 34.8-28.3L34.8-28.3 33.8-24.15Q32.95-24.3 28.78-24.48 24.6-24.65 16.65-24.65L16.65-24.65 14.1-24.65Q10.1-24.65 10.1-21.1L10.1-21.1 10.1-8.35Q10.1-6.65 10.98-5.73 11.85-4.8 14.1-4.8L14.1-4.8 16.15-4.8Q24.45-4.8 29.03-4.98 33.6-5.15 34.7-5.35L34.7-5.35 36.75-2.05Q36.75-1.8 35.93-1.3 35.1-0.8 32.9-0.4 30.7 0 26.55 0L26.55 0ZM48.85 0L42.25 0 42.25-25.4 41.75-29.4 48.95-29.4 65.95-11.6 67.9-8.9 68.45-8.9 68.45-29.4 75.05-29.4 75.05 0 68.7 0 51.3-18.1 49.35-20.45 48.85-20.45 48.85 0ZM88.15 0L82.05 0 82.05-22.4 86.15-22.4 88.15-21.4Q90.25-21.8 93.2-22.1 96.15-22.4 99.95-22.4L99.95-22.4 102.45-22.4Q104.95-22.4 106.3-21.7 107.65-21 108.22-19.95 108.8-18.9 108.92-17.82 109.05-16.75 109.05-16L109.05-16 109.05 0 102.95 0 102.95-16.1Q102.95-18.1 100.55-18.1L100.55-18.1 89.65-18.1Q88.7-18.1 88.42-17.93 88.15-17.75 88.15-17L88.15-17 88.15 0ZM130.94 0L120.89 0Q118.39 0 117.04-0.65 115.69-1.3 115.12-2.3 114.54-3.3 114.42-4.4 114.29-5.5 114.29-6.4L114.29-6.4 114.29-16Q114.29-16.75 114.42-17.82 114.54-18.9 115.12-19.95 115.69-21 117.07-21.7 118.44-22.4 120.89-22.4L120.89-22.4 131.64-22.4Q134.94-22.4 136.82-21.78 138.69-21.15 139.47-19.75 140.24-18.35 140.24-16L140.24-16 140.24-8.6 131.49-8.6Q126.99-8.6 124.17-8.8 121.34-9 120.39-9.05L120.39-9.05 120.39-6.3Q120.34-4.3 122.79-4.3L122.79-4.3 125.34-4.3Q128.04-4.3 130.62-4.38 133.19-4.45 135.34-4.58 137.49-4.7 138.79-4.8L138.79-4.8 140.79-1.55Q140.79 0 130.94 0L130.94 0ZM120.39-16.1L120.39-12.9 134.14-12.9 134.14-16.1Q134.14-17.1 133.92-17.5 133.69-17.9 132.59-18 131.49-18.1 128.84-18.1L128.84-18.1 122.79-18.1Q120.39-18.1 120.39-16.1L120.39-16.1ZM159.34 0L151.34 0 143.29-22.4 150.29-22.4 154.34-9.7 155.64-5.25 156.14-5.25 156.89-9.2 160.34-22.4 168.34-22.4 171.99-9.2 172.69-5.25 173.19-5.25 174.54-9.8 178.34-22.4 185.34-22.4 184.54-19.35 177.34 0 169.34 0 165.19-13.75 164.69-16.1 164.19-16.1 163.59-13.75 159.34 0ZM208.64 0L194.49 0Q191.14 0 189.74-0.35 188.34-0.7 188.34-1.05L188.34-1.05 189.84-4.8Q191.29-4.65 195.16-4.48 199.04-4.3 204.74-4.3L204.74-4.3 207.24-4.3Q208.49-4.3 208.81-4.98 209.14-5.65 209.14-6.8L209.14-6.8Q209.14-7.95 208.76-8.65 208.39-9.35 207.24-9.35L207.24-9.35 194.94-9.35Q191.44-9.35 189.89-10.68 188.34-12 188.34-14.65L188.34-14.65 188.34-16.65Q188.34-17.35 188.49-18.3 188.64-19.25 189.24-20.2 189.84-21.15 191.19-21.78 192.54-22.4 194.94-22.4L194.94-22.4 208.74-22.4Q211.74-22.4 212.99-22.05 214.24-21.7 214.24-21.35L214.24-21.35 213.74-17.6Q212.29-17.75 208.39-17.93 204.49-18.1 198.84-18.1L198.84-18.1 196.34-18.1Q195.09-18.1 194.76-17.43 194.44-16.75 194.44-15.85L194.44-15.85Q194.44-14.9 194.76-14.28 195.09-13.65 196.34-13.65L196.34-13.65 208.64-13.65Q212.04-13.65 213.64-12.25 215.24-10.85 215.24-8.7L215.24-8.7 215.24-5.75Q215.24-4.85 215.11-3.85 214.99-2.85 214.39-1.98 213.79-1.1 212.44-0.55 211.09 0 208.64 0L208.64 0Z" opacity="1" transform="matrix(1,0,0,1,0,0)" fill="#e09f05" class="wordmark-text-0" data-fill-palette-color="primary" id="text-0"></path></svg></g></svg></g></svg></g></svg></g><g transform="matrix(1,0,0,1,63.973916367675805,0)"><svg viewBox="0 0 30.444086250435035 30.444086250435035" height="30.444086250435035" width="30.444086250435035"><g><svg xmlns="http://www.w3.org/2000/svg" xmlns:xlink="http://www.w3.org/1999/xlink" version="1.1" x="0" y="0" viewBox="68.5 68.5 375 375" enable-background="new 0 0 512 512" xml:space="preserve" height="30.444086250435035" width="30.444086250435035" class="icon-icon-0" data-fill-palette-color="accent" id="icon-0"><g fill="#d6350e" data-fill-palette-color="accent"><circle cx="124.7" cy="349.8" r="38" fill="#d6350e" data-fill-palette-color="accent"></circle><path d="M143.5 406c0 0-34.9 0-37.5 0-20.7 0-37.5 16.8-37.5 37.5H181C181 422.8 164.2 406 143.5 406z" fill="#d6350e" data-fill-palette-color="accent"></path><circle cx="256" cy="349.8" r="38" fill="#d6350e" data-fill-palette-color="accent"></circle><path d="M274.7 406c0 0-34.9 0-37.5 0-20.7 0-37.5 16.8-37.5 37.5h112.5C312.2 422.8 295.4 406 274.7 406z" fill="#d6350e" data-fill-palette-color="accent"></path><circle cx="256" cy="106" r="38" fill="#d6350e" data-fill-palette-color="accent"></circle><path d="M312.2 199.8c0-20.7-16.8-37.5-37.5-37.5 0 0-34.9 0-37.5 0-20.7 0-37.5 16.8-37.5 37.5H312.2z" fill="#d6350e" data-fill-palette-color="accent"></path><circle cx="387.2" cy="349.8" r="38" fill="#d6350e" data-fill-palette-color="accent"></circle><path d="M406 406c0 0-34.9 0-37.5 0-20.7 0-37.5 16.8-37.5 37.5h112.5C443.5 422.8 426.7 406 406 406z" fill="#d6350e" data-fill-palette-color="accent"></path><path d="M331 349.8V256h18.7v-37.5H162.2V256H181v93.7c0-41.3 33.7-75 75-75C297.3 274.7 331 308.4 331 349.8L331 349.8 331 349.8z" fill="#d6350e" data-fill-palette-color="accent"></path></g></svg></g></svg></g><g></g></svg></g></svg></g></svg></g><g id="text-0"><path d="M34.992 85.938l-5.06 12.578c-0.861 2.141-1.836 3.695-2.924 4.663-1.086 0.961-2.33 1.439-3.734 1.434-1.4 0.004-2.989-0.353-4.769-1.068v0l-10.089-4.059c-2.894-1.164-4.768-2.672-5.62-4.523-0.852-1.851-0.69-4.24 0.488-7.166v0l5.476-13.614c0.838-2.084 1.592-3.628 2.26-4.632 0.671-1.01 1.127-1.467 1.368-1.37v0l3.39 2.412c-0.295 0.477-1.003 1.955-2.125 4.432-1.119 2.471-2.643 6.104-4.572 10.899v0l-0.928 2.308c-0.971 2.413-0.386 4.05 1.755 4.912v0l11.543 4.643c1.026 0.413 1.923 0.468 2.692 0.167 0.771-0.308 1.43-1.139 1.975-2.495v0l0.745-1.853c2.015-5.01 3.523-8.914 4.524-11.712 1.009-2.802 1.585-4.561 1.725-5.277v0l3.738-0.649c0.152 0.061 0.276 0.402 0.372 1.022 0.105 0.616 0.011 1.638-0.283 3.064-0.292 1.421-0.941 3.382-1.947 5.884z" fill="#d6350e" data-fill-palette-color="accent"></path><path d="M59.904 53.067l-4.892 4.174-16.079-18.843-2.906-2.649 5.343-4.56 23.878 2.442 3.149 0.772 0.413-0.352-12.975-15.205 4.892-4.174 18.612 21.81-4.705 4.015-24.375-2.408-2.93-0.515-0.374 0.319z" fill="#d6350e" data-fill-palette-color="accent"></path><path d="M110.021 25.016l-5.804 1.307-4.8-21.308 3.896-0.878 2.122 0.52c1.275-0.553 2.826-1.137 4.654-1.752 1.829-0.608 3.946-1.183 6.35-1.724v0l2.388-0.538c1.585-0.357 2.853-0.412 3.805-0.164 0.96 0.253 1.698 0.671 2.214 1.254 0.51 0.585 0.881 1.208 1.114 1.869 0.234 0.668 0.405 1.238 0.511 1.712v0l3.429 15.224-5.804 1.307-3.449-15.314c-0.287-1.272-1.189-1.737-2.708-1.395v0l-10.369 2.336c-0.606 0.137-0.983 0.281-1.131 0.433-0.148 0.152-0.168 0.465-0.062 0.937v0z" fill="#d6350e" data-fill-palette-color="accent"></path><path d="M171.327 25.288l-9.562-2.142c-1.585-0.355-2.762-0.836-3.529-1.441-0.767-0.606-1.259-1.265-1.477-1.979-0.225-0.715-0.299-1.431-0.222-2.148 0.077-0.717 0.179-1.363 0.308-1.936v0l2.046-9.133c0.106-0.473 0.276-1.044 0.51-1.711 0.232-0.662 0.606-1.284 1.121-1.869 0.509-0.586 1.25-1.004 2.223-1.254 0.971-0.244 2.236-0.192 3.795 0.157v0l10.222 2.291c2.098 0.47 3.696 1.035 4.794 1.693 1.103 0.667 1.802 1.498 2.096 2.495 0.294 0.996 0.275 2.241-0.06 3.733v0l-1.578 7.044-8.334-1.867c-2.851-0.639-5.159-1.222-6.922-1.75-1.764-0.528-2.945-0.877-3.543-1.046v0l-0.587 2.618c-0.317 1.258 0.304 2.062 1.863 2.411v0l2.418 0.542c1.719 0.385 3.399 0.737 5.042 1.056 1.643 0.319 3.156 0.592 4.539 0.818 1.384 0.226 2.492 0.401 3.325 0.524v0l1.216 3.516c-0.221 0.986-3.456 0.779-9.704-0.622zM164.717 7.72l-0.681 3.038 13.09 2.933 0.681-3.038c0.143-0.64 0.17-1.102 0.08-1.388-0.083-0.284-0.468-0.535-1.154-0.752-0.685-0.223-1.866-0.523-3.545-0.899v0l-5.755-1.29c-1.526-0.342-2.431 0.124-2.716 1.396z" fill="#d6350e" data-fill-palette-color="accent"></path><path d="M212.685 47.523l-5.918-5.086 8.289-21.677 5.172 4.445-5.072 11.965-1.867 4.121 0.365 0.313 3.068-2.439 10.938-7.573 5.917 5.087-5.687 12.084-1.99 3.367 0.365 0.314 3.892-2.502 10.821-6.903 5.172 4.446-2.526 1.745-17.628 9.733-5.91-5.079 5.668-12.817 1.124-2.045-0.373-0.32-1.931 1.351z" fill="#d6350e" data-fill-palette-color="accent"></path><path d="M251.871 101.76l-5.323-12.725c-0.84-2.009-1.333-3.479-1.479-4.41-0.136-0.927-0.101-1.434 0.108-1.521v0l3.937-0.06c0.275 0.906 0.846 2.543 1.711 4.912 0.871 2.366 2.022 5.259 3.453 8.679v0l0.941 2.248c0.314 0.749 0.713 1.137 1.197 1.164 0.485 0.027 1.073-0.105 1.766-0.394v0c0.686-0.287 1.193-0.632 1.521-1.036 0.323-0.394 0.34-0.938 0.05-1.631v0l-4.628-11.062c-0.88-2.103-1.114-3.785-0.701-5.046 0.404-1.264 1.399-2.228 2.986-2.892v0l1.804-0.754c0.416-0.174 0.928-0.337 1.539-0.489 0.606-0.143 1.271-0.154 1.994-0.035 0.717 0.122 1.434 0.51 2.152 1.165 0.709 0.651 1.365 1.697 1.969 3.139v0l5.193 12.413c0.754 1.801 1.183 3.12 1.288 3.956 0.106 0.836 0.051 1.299-0.162 1.389v0l-3.562 0.958c-0.275-0.906-0.848-2.55-1.719-4.931-0.873-2.388-2.018-5.276-3.436-8.664v0l-0.94-2.248c-0.314-0.749-0.713-1.137-1.198-1.164-0.491-0.024-1.004 0.076-1.539 0.299v0c-0.573 0.24-1.005 0.535-1.295 0.886-0.296 0.353-0.288 0.905 0.026 1.654v0l4.628 11.062c0.854 2.041 1.063 3.718 0.629 5.032-0.443 1.31-1.308 2.234-2.593 2.772v0l-2.654 1.11c-0.542 0.227-1.127 0.427-1.758 0.602-0.636 0.177-1.291 0.196-1.963 0.056-0.673-0.14-1.346-0.547-2.02-1.22-0.665-0.669-1.305-1.741-1.922-3.214z" fill="#d6350e" data-fill-palette-color="accent"></path><path d="M14.727 201.136l-5.07-12.596c-0.864-2.147-1.239-3.946-1.124-5.398 0.124-1.448 0.692-2.659 1.706-3.634 1.01-0.966 2.407-1.808 4.193-2.526v0l10.108-4.068c2.901-1.167 5.299-1.379 7.196-0.634 1.897 0.745 3.435 2.584 4.615 5.516v0l5.49 13.642c0.839 2.084 1.366 3.722 1.582 4.916 0.216 1.194 0.203 1.839-0.038 1.935v0l-4.125 0.612c-0.118-0.549-0.631-2.108-1.541-4.678-0.907-2.564-2.326-6.246-4.258-11.047v0l-0.933-2.318c-0.971-2.413-2.53-3.187-4.677-2.323v0l-11.552 4.649c-1.032 0.415-1.721 0.998-2.067 1.749-0.343 0.756-0.242 1.812 0.304 3.167v0l0.749 1.862c2.019 5.016 3.638 8.883 4.857 11.6 1.215 2.727 2.017 4.398 2.405 5.015v0l-2.238 3.053c-0.152 0.061-0.479-0.094-0.982-0.466-0.505-0.378-1.146-1.183-1.922-2.416-0.776-1.233-1.669-3.104-2.678-5.612z" fill="#d6350e" data-fill-palette-color="accent"></path><path d="M45.722 242.448l-4.908-4.187 16.103-18.877 2.172-3.288 5.352 4.566 1.352 24.008-0.265 3.246 0.405 0.345 12.999-15.238 4.908 4.187-18.641 21.852-4.721-4.027-1.456-24.486 0.04-2.982-0.374-0.319z" fill="#d6350e" data-fill-palette-color="accent"></path><path d="M105.214 275.188l-5.814-1.309 4.806-21.348 3.906 0.879 1.695 1.379c1.396 0.048 3.051 0.187 4.966 0.415 1.913 0.235 4.079 0.625 6.496 1.168v0l2.388 0.538c1.585 0.357 2.757 0.855 3.515 1.495 0.76 0.633 1.248 1.327 1.463 2.082 0.21 0.747 0.278 1.469 0.205 2.166-0.075 0.704-0.165 1.292-0.272 1.766v0l-3.434 15.254-5.814-1.309 3.455-15.344c0.286-1.272-0.333-2.08-1.859-2.424v0l-10.389-2.339c-0.599-0.135-1.002-0.166-1.207-0.093-0.199 0.074-0.351 0.348-0.458 0.82v0z" fill="#d6350e" data-fill-palette-color="accent"></path><path d="M176.104 274.923l-9.582 2.146c-1.585 0.355-2.854 0.422-3.807 0.202-0.952-0.221-1.682-0.606-2.189-1.157-0.51-0.557-0.883-1.177-1.12-1.859-0.23-0.683-0.409-1.311-0.537-1.884v0l-2.05-9.153c-0.106-0.473-0.199-1.061-0.279-1.763-0.072-0.697 0-1.42 0.217-2.169 0.216-0.755 0.711-1.45 1.485-2.085 0.773-0.642 1.939-1.137 3.497-1.486v0l10.253-2.296c2.098-0.47 3.788-0.642 5.068-0.516 1.275 0.134 2.259 0.592 2.952 1.375 0.691 0.776 1.204 1.91 1.539 3.402v0l1.58 7.054-8.334 1.867c-2.865 0.642-5.207 1.1-7.028 1.374-1.827 0.276-3.043 0.468-3.648 0.576v0l0.586 2.618c0.252 1.28 1.154 1.746 2.706 1.398v0l2.438-0.546c1.712-0.383 3.382-0.782 5.01-1.195 1.627-0.42 3.115-0.82 4.465-1.2 1.348-0.386 2.427-0.704 3.238-0.956v0l2.602 2.671c0.221 0.986-2.8 2.18-9.062 3.582zM162.615 261.826l0.682 3.048 13.1-2.934-0.682-3.048c-0.142-0.633-0.312-1.064-0.51-1.292-0.203-0.22-0.661-0.282-1.374-0.185-0.708 0.089-1.904 0.322-3.59 0.699v0l-5.776 1.293c-1.519 0.34-2.136 1.146-1.85 2.419z" fill="#d6350e" data-fill-palette-color="accent"></path><path d="M226.914 247.946l-5.926 5.092-20.227-11.472 5.188-4.458 11.087 6.837 3.793 2.466 0.372-0.321-1.964-3.401-5.847-11.974 5.933-5.099 11.105 7.456 3.037 2.481 0.365-0.314-1.895-4.232-5.202-11.758 5.188-4.458 1.344 2.774 6.984 18.922-5.926 5.092-11.831-7.547-1.868-1.419-0.365 0.314 1.044 2.126z" fill="#d6350e" data-fill-palette-color="accent"></path><path d="M272.036 185.571l-5.339 12.752c-0.841 2.009-1.542 3.392-2.103 4.148-0.565 0.748-0.951 1.078-1.159 0.991v0l-2.816-2.766c0.452-0.832 1.219-2.391 2.302-4.676 1.08-2.279 2.337-5.131 3.771-8.557v0l0.945-2.257c0.314-0.749 0.307-1.307-0.021-1.674-0.321-0.364-0.828-0.691-1.521-0.981v0c-0.686-0.287-1.288-0.406-1.804-0.356-0.517 0.05-0.919 0.418-1.207 1.105v0l-4.642 11.089c-0.881 2.103-1.913 3.455-3.097 4.054-1.187 0.591-2.578 0.553-4.17-0.114v0l-1.804-0.755c-0.416-0.174-0.891-0.425-1.428-0.753-0.536-0.328-1.012-0.79-1.429-1.387-0.42-0.605-0.65-1.39-0.691-2.354-0.031-0.968 0.255-2.173 0.859-3.615v0l5.208-12.439c0.754-1.801 1.392-3.033 1.913-3.695 0.53-0.666 0.9-0.956 1.108-0.869v0l3.191 1.869c-0.452 0.832-1.223 2.4-2.313 4.704-1.088 2.298-2.342 5.144-3.763 8.538v0l-0.942 2.248c-0.314 0.749-0.307 1.307 0.021 1.674 0.321 0.364 0.753 0.659 1.295 0.886v0c0.567 0.237 1.08 0.337 1.539 0.3 0.46-0.037 0.846-0.43 1.16-1.179v0l4.639-11.08c0.857-2.047 1.904-3.373 3.142-3.98 1.247-0.61 2.516-0.645 3.807-0.104v0l2.655 1.111c0.542 0.227 1.099 0.504 1.671 0.833 0.567 0.326 1.039 0.779 1.418 1.36 0.372 0.578 0.555 1.343 0.549 2.294-0.013 0.949-0.327 2.161-0.944 3.635z" fill="#d6350e" data-fill-palette-color="accent"></path><path d="M0 139.438c0-6.06 4.912-10.972 10.972-10.972 6.06 0 10.972 4.912 10.973 10.972 0 6.06-4.912 10.972-10.973 10.973-6.06 0-10.972-4.912-10.972-10.973z" fill="#d6350e" data-fill-palette-color="accent"></path><path d="M258.055 139.438c0-6.06 4.912-10.972 10.973-10.972 6.06 0 10.972 4.912 10.972 10.972 0 6.06-4.912 10.972-10.972 10.973-6.06 0-10.972-4.912-10.973-10.973z" fill="#d6350e" data-fill-palette-color="accent"></path></g><g id="text-1"></g></svg></g><defs></defs></svg><rect width="280" height="280" fill="none" stroke="none" visibility="hidden"></rect></g></svg></g></svg>